<?xml version="1.0" encoding="utf-8"?>
<!-- Generator: Adobe Illustrator 22.0.1, SVG Export Plug-In . SVG Version: 6.00 Build 0)  -->
<svg version="1.1" id="Layer_1" xmlns="http://www.w3.org/2000/svg" xmlns:xlink="http://www.w3.org/1999/xlink" x="0px" y="0px"
	 viewBox="0 0 467 329.7" style="enable-background:new 0 0 467 329.7;" xml:space="preserve">
<style type="text/css">
	.st0{fill:none;}
	.st1{fill:#E11F26;}
	.st2{fill:#F6EC3E;}
	.st3{fill-rule:evenodd;clip-rule:evenodd;fill:#E11F26;}
</style>
<rect x="-985.5" y="-104.7" class="st0" width="841.9" height="595.3"/>
<g>
	<path d="M41.1,72L41.1,72l-20.6,0v0C9.2,72,0,81.2,0,92.5h20.6v20.5h0c0,11.3,9.2,20.5,20.6,20.5v-20.5v0V92.5
		c11.4,0,20.6-9.2,20.6-20.6H41.1z"/>
	<path d="M102.7,92.5C113.5,91.9,122,82.9,122,72h-20.6h0H80.9v0c-11.4,0-20.6,9.2-20.6,20.6v20.6c0,11.4,9.2,20.6,20.6,20.6h20.6
		c11.4,0,20.6-9.2,20.6-20.6h0V92.5H102.7z M91.2,110c-4,0-7.2-3.2-7.2-7.2s3.2-7.2,7.2-7.2c4,0,7.2,3.2,7.2,7.2S95.1,110,91.2,110"
		/>
	<path d="M168.2,71.9h-20.6c-11.4,0-20.6,9.2-20.6,20.6v20.6c0,11.4,9.2,20.6,20.6,20.6v0h20.6v-19.4c0.6,10.8,9.6,19.4,20.5,19.4
		v-20.6v0V92.5h0C188.8,81.1,179.6,71.9,168.2,71.9 M157.9,110c-4,0-7.2-3.2-7.2-7.2c0-4,3.2-7.2,7.2-7.2c4,0,7.2,3.2,7.2,7.2
		C165.1,106.8,161.9,110,157.9,110"/>
	<path d="M255.5,92.5c0-11.4-9.2-20.6-20.6-20.6v0h-20.6v19.4c-0.6-10.8-9.6-19.4-20.5-19.4v20.6v20.6h0c0,11.4,9.2,20.6,20.5,20.6
		v5.1H235v-5.1h0c11.3,0,20.5-9.2,20.5-20.6V92.5z M224.7,110c-4,0-7.2-3.2-7.2-7.2c0-4,3.2-7.2,7.2-7.2c4,0,7.2,3.2,7.2,7.2
		C231.9,106.8,228.7,110,224.7,110"/>
	<path d="M41.1,138.7H20.6C9.2,138.7,0,148,0,159.3h20.6v20.5h0c0,11.3,9.2,20.5,20.6,20.5v-20.5v0v-20.5c11.4,0,20.6-9.2,20.6-20.6
		H41.1z"/>
	<path d="M102.7,159.3c10.8-0.6,19.4-9.6,19.4-20.5h-20.6h0H80.9v0c-11.4,0-20.6,9.2-20.6,20.6v20.6c0,11.4,9.2,20.6,20.6,20.6h20.6
		c11.4,0,20.6-9.2,20.6-20.6h0v-20.6H102.7z M91.2,176.8c-4,0-7.2-3.2-7.2-7.2c0-4,3.2-7.2,7.2-7.2c4,0,7.2,3.2,7.2,7.2
		C98.4,173.6,95.1,176.8,91.2,176.8"/>
	<path d="M301.6,138.7L301.6,138.7l-20.6,0v19.4c-0.6-10.8-9.6-19.4-20.5-19.4v20.6v20.6h0c0,11.4,9.2,20.6,20.5,20.6v5.1h20.6v-5.1
		h0c11.4,0,20.5-9.2,20.5-20.6v-20.6C322.2,147.9,313,138.7,301.6,138.7 M291.4,176.8c-4,0-7.2-3.2-7.2-7.2c0-4,3.2-7.2,7.2-7.2
		c4,0,7.2,3.2,7.2,7.2C298.6,173.5,295.4,176.8,291.4,176.8"/>
	<path d="M255.5,159.3v-20.6h-7.7c-11.4,0-20.5,9.2-20.5,20.6v20.6h-5v-20.6c0-11.4-9.2-20.6-20.6-20.6h-7.7v20.6v20.6h0
		c0,11.4,9.2,20.6,20.6,20.6h20.6c11.4,0,20.6-9.2,20.6-20.6L255.5,159.3L255.5,159.3z"/>
	<path d="M168.5,137h-21.1c-11.7,0-21.1,9.5-21.1,21.1v21.1c0,11.7,9.5,21.1,21.1,21.1v0h21.1v0c11.7,0,21.1-9.5,21.1-21.1v-21.1h0
		C189.6,146.4,180.2,137,168.5,137 M157.9,176.1c-4.1,0-7.4-3.3-7.4-7.4s3.3-7.4,7.4-7.4c4.1,0,7.4,3.3,7.4,7.4
		S162,176.1,157.9,176.1"/>
	<path class="st1" d="M257.4,0h-64.8c0,35.8,29,64.8,64.8,64.8h64.8C322.2,29,293.2,0,257.4,0"/>
	<polygon class="st1" points="329.7,139.6 329.7,276.8 467,276.8 	"/>
	<path class="st1" d="M118.1,276.8c36.4,0,65.9-29.5,65.9-65.9H52.2C52.2,247.3,81.7,276.8,118.1,276.8"/>
	<path class="st1" d="M257.4,276.8c36.4,0,65.9-29.5,65.9-65.9H191.5C191.5,247.3,221,276.8,257.4,276.8"/>
	<path class="st2" d="M360,102.2c0-16.7-13.5-30.2-30.2-30.2v60.5C346.4,132.4,360,118.9,360,102.2"/>
	<rect x="260.5" y="71.9" class="st1" width="61.7" height="61.7"/>
	<path d="M68.7,329.5c-1.7,0-2.4-0.9-2.4-2.2v-14.2H57c0,4.7,0,9.5,0,14.2c0,1.4-0.8,2.2-2.4,2.2c-1.6,0-2.4-0.9-2.4-2.2
		c0-5.3,0-10.5,0-15.8c0-1.4,0.9-2.2,2.2-2.2H69c1.3,0,2.1,0.9,2.1,2.2v15.8C71.1,328.6,70.3,329.5,68.7,329.5"/>
	<path d="M97.1,326.9c0,1.1-0.2,2.6-2,2.6c-1.1,0-1.6-0.5-1.9-1.4l-0.4-1.4h-0.2c-2.1,2.3-4.5,3-6.9,3c-6.3,0-10.3-4-10.3-10.2
		c0-5.8,4.2-10.6,10.4-10.6c2.1,0,4.9,0.7,6.7,3h0.2l0.4-1.4c0.3-0.9,0.9-1.4,1.8-1.4c1.7,0,2,1.3,2,2.8V326.9z M80.2,319.2
		c0,3.9,2.2,6.7,6.1,6.7c3.8,0,6-2.9,6-6.7c0-3.7-2.4-6.5-6-6.5C82.6,312.7,80.2,315.7,80.2,319.2"/>
	<path d="M107.4,327.3c0,1.4-0.8,2.2-2.4,2.2c-1.7,0-2.4-0.9-2.4-2.2v-16c0-1.3,0.8-2.2,2.4-2.2c1.6,0,2.4,0.9,2.4,2.2V327.3z"/>
	<path d="M124,301c-2.2,0-3.9,0.5-3.9,2.6c0,4.4,13.5,3.6,13.5,15.5c0,5.9-4.3,10.6-10.8,10.6c-6.9,0-10.9-4.5-10.9-10.5
		c0-4.1,2.6-8.7,7-10v-0.3c-2.5-1.2-3.9-2.9-3.9-5.4c0-3.7,2.7-6.1,7.8-6.1h6.1c0.9,0,1.6,0.8,1.6,1.9c0,1.2-0.7,1.8-1.6,1.8H124z
		 M122.7,311.4c-4.2,0.8-6,4.4-6,7.6c0,3.8,2.1,6.9,6.2,6.9c3.9,0,6.1-3.3,6.1-6.9C128.9,316,127.5,312.9,122.7,311.4"/>
	<path d="M142.9,327.3c0,1.4-0.8,2.2-2.4,2.2c-1.7,0-2.4-0.9-2.4-2.2v-16c0-1.3,0.8-2.2,2.4-2.2s2.4,0.9,2.4,2.2V327.3z"/>
	<path d="M160.2,318.7c1.6,0.6,2.6,1.9,3.6,3.4l3,4.3c0.8,1.2,0.4,2.5-0.8,3c-1.4,0.5-2.6,0.1-3.3-1l-3.5-4.8
		c-1.3-1.8-2.2-2.8-4.4-2.8h-1.7v6.7c0,1.3-0.9,2.1-2.4,2.1c-1.6,0-2.4-0.8-2.4-2.1V311c0-1.3,0.9-2.1,2.4-2.1
		c1.6,0,2.4,0.8,2.4,2.1v5.8h1.4c2,0,2.9-0.6,4.1-2.3l3.2-4.5c0.8-1.1,1.9-1.5,3.2-1c1.3,0.4,1.5,1.7,0.8,2.9l-2.3,3.4
		c-1,1.4-2.1,2.6-3.4,3.2L160.2,318.7z"/>
	<path d="M170.7,312.6c0-2,0.2-3.5,2.2-3.5c1.2,0,1.7,0.7,1.9,1.5l0.3,1.3h0.2c1.9-2.3,4.3-3,6.6-3c5.2,0,7.7,3.2,7.7,8.1v10.5
		c0,1.3-0.8,2.1-2.4,2.1c-1.6,0-2.3-0.8-2.3-2.1v-9.5c0-3.4-1.4-5.2-4-5.2c-3.2,0-5.4,2.4-5.4,6.8v7c0,1.9-0.4,3-2.4,3
		c-1.5,0-2.3-0.8-2.3-2.1V312.6z M180.9,298.8c0.6-1,1.8-1,2.6-0.4c0.9,0.7,1.1,1.8,0.4,2.6l-4.3,4.6c-0.6,0.7-1.4,0.8-2,0.3
		c-0.4-0.4-0.6-0.9-0.2-1.5L180.9,298.8z"/>
	<path d="M217.3,318.7c1.6,0.6,2.6,1.9,3.6,3.4l3,4.3c0.8,1.2,0.4,2.5-0.8,3c-1.4,0.5-2.6,0.1-3.3-1l-3.5-4.8
		c-1.3-1.8-2.2-2.8-4.4-2.8h-1.7v6.7c0,1.3-0.9,2.1-2.4,2.1c-1.6,0-2.4-0.8-2.4-2.1V311c0-1.3,0.9-2.1,2.4-2.1
		c1.6,0,2.4,0.8,2.4,2.1v5.8h1.4c2,0,2.9-0.6,4.1-2.3l3.2-4.5c0.8-1.1,1.9-1.5,3.2-1c1.3,0.4,1.5,1.7,0.8,2.9l-2.3,3.4
		c-1,1.4-2.1,2.6-3.4,3.2L217.3,318.7z"/>
	<path d="M248,326.9c0,1.1-0.2,2.6-2,2.6c-1.1,0-1.6-0.5-1.9-1.4l-0.4-1.4h-0.2c-2.1,2.3-4.5,3-6.9,3c-6.3,0-10.3-4-10.3-10.2
		c0-5.8,4.2-10.6,10.4-10.6c2.2,0,4.9,0.7,6.7,3h0.2l0.4-1.4c0.3-0.9,0.9-1.4,1.8-1.4c1.7,0,2,1.3,2,2.8V326.9z M231.1,319.2
		c0,3.9,2.2,6.7,6.1,6.7c3.8,0,6-2.9,6-6.7c0-3.7-2.4-6.5-6-6.5C233.5,312.7,231.1,315.7,231.1,319.2"/>
	<path d="M265.5,309.3c1,0,1.7,0.8,1.7,1.8c0,1.2-0.8,1.8-1.7,1.8h-4.7v9.9c0,1.7,0.6,2.7,2.4,2.7c0.6,0,1.4-0.2,2.6-0.5
		c1.1-0.3,2.1,0.6,2.1,1.7c0,0.7-0.3,1.4-1,1.8c-1.2,0.8-2.9,1.1-4.4,1.1c-5,0-6.3-2.5-6.3-6.4V313h-3.4c-0.9,0-1.7-0.7-1.7-1.8
		c0-1.1,0.7-1.8,1.7-1.8H265.5z"/>
	<path d="M291.2,326.9c0,1.1-0.2,2.6-2,2.6c-1.1,0-1.6-0.5-1.9-1.4l-0.4-1.4h-0.2c-2.1,2.3-4.5,3-6.9,3c-6.3,0-10.3-4-10.3-10.2
		c0-5.8,4.2-10.6,10.4-10.6c2.2,0,4.9,0.7,6.7,3h0.2l0.4-1.4c0.3-0.9,0.9-1.4,1.8-1.4c1.7,0,2,1.3,2,2.8V326.9z M274.4,319.2
		c0,3.9,2.2,6.7,6.1,6.7c3.8,0,6-2.9,6-6.7c0-3.7-2.4-6.5-6-6.5C276.7,312.7,274.4,315.7,274.4,319.2"/>
	<path d="M316.9,309.3c1,0,1.7,0.8,1.7,1.9c0,1.2-0.7,1.8-1.6,1.8h-3.1l-0.1,0.2c2,1.5,3.1,4.3,3.1,6.7c0,5.4-4.1,9.8-10.7,9.8
		c-7,0-10.7-4.6-10.7-10.1c0-5.8,4.5-10.3,10.7-10.3H316.9z M300.2,319.4c0,3.7,2.1,6.5,6,6.5c3.8,0,6.1-3,6.1-6.6
		c0-3.5-2.2-6.5-6.1-6.5C302.6,312.8,300.2,315.8,300.2,319.4"/>
	<path d="M333.4,318.7c1.6,0.6,2.6,1.9,3.6,3.4l3,4.3c0.8,1.2,0.4,2.5-0.8,3c-1.4,0.5-2.6,0.1-3.3-1l-3.5-4.8
		c-1.3-1.8-2.2-2.8-4.4-2.8h-1.7v6.7c0,1.3-0.9,2.1-2.4,2.1c-1.6,0-2.4-0.8-2.4-2.1V311c0-1.3,0.9-2.1,2.4-2.1
		c1.6,0,2.4,0.8,2.4,2.1v5.8h1.4c2,0,2.9-0.6,4.1-2.3l3.2-4.5c0.8-1.1,1.9-1.5,3.2-1c1.3,0.4,1.5,1.7,0.8,2.9l-2.3,3.4
		c-1,1.4-2.1,2.6-3.4,3.2L333.4,318.7z"/>
	<path d="M343.9,312.6c0-2,0.2-3.5,2.2-3.5c1.2,0,1.7,0.7,1.9,1.5l0.3,1.3h0.2c1.9-2.3,4.3-3,6.6-3c5.2,0,7.7,3.2,7.7,8.1v10.5
		c0,1.3-0.8,2.1-2.4,2.1c-1.6,0-2.3-0.8-2.3-2.1v-9.5c0-3.4-1.4-5.2-4-5.2c-3.2,0-5.4,2.4-5.4,6.8v7c0,1.9-0.4,3-2.4,3
		c-1.5,0-2.3-0.8-2.3-2.1V312.6z M354.1,298.8c0.6-1,1.8-1,2.6-0.4c0.9,0.7,1.1,1.8,0.4,2.6l-4.3,4.6c-0.6,0.7-1.4,0.8-2,0.3
		c-0.4-0.4-0.6-0.9-0.2-1.5L354.1,298.8z"/>
	<path d="M375.5,320.9c1.6-3.5,3.3-7,4.9-10.6c0.4-0.9,1-1.4,2-1.4c1.5,0,2.6,0.8,2.6,2c0,0.3-0.1,0.7-0.3,1l-8.4,16.7
		c-0.3,0.6-0.6,0.9-1,0.9c-0.4,0-0.7-0.3-1-1l-8.3-16.7c-0.2-0.4-0.3-0.7-0.3-1c0-1.1,1.2-2,2.6-2c1.3,0,2,1.2,2.5,2.5l4.5,9.5
		H375.5z"/>
	<path d="M397,325.9c2.2,0,3.7-2,3.7-5.4V313c0-1.3,0.9-2.2,2.4-2.2c1.6,0,2.4,0.9,2.4,2.2v7.4c0,3.8,1.9,5.5,3.8,5.5
		c2.6,0,3.8-1.7,3.8-5.2v-8.6c0-1.7,0.4-3.2,2.4-3.2c2.1,0,2.4,1.5,2.4,3.2v8.5c0,6.5-3.4,9.1-8,9.1c-2.6,0-5.2-1.3-6.7-3.8
		c-1.3,2.5-3.9,3.8-6.7,3.8c-4.3,0-7.9-2.2-7.9-9v-8.5c0-1.7,0.3-3.2,2.4-3.2c1.6,0,2.3,0.8,2.3,2.2v9.9
		C393.1,323.2,394.1,325.9,397,325.9"/>
	<path d="M443.3,309.3c1,0,1.7,0.8,1.7,1.9c0,1.2-0.7,1.8-1.6,1.8h-3.1l-0.1,0.2c2,1.5,3.1,4.3,3.1,6.7c0,5.4-4.1,9.8-10.7,9.8
		c-7,0-10.8-4.6-10.8-10.1c0-5.8,4.5-10.3,10.8-10.3H443.3z M426.6,319.4c0,3.7,2.1,6.5,6,6.5c3.8,0,6.1-3,6.1-6.6
		c0-3.5-2.2-6.5-6.1-6.5C428.9,312.8,426.6,315.8,426.6,319.4"/>
	<path d="M448.1,312.6c0-2,0.2-3.5,2.2-3.5c1.2,0,1.7,0.7,1.9,1.5l0.3,1.3h0.2c1.9-2.3,4.3-3,6.6-3c5.2,0,7.7,3.2,7.7,8.1v10.5
		c0,1.3-0.8,2.1-2.4,2.1c-1.6,0-2.3-0.8-2.3-2.1v-9.5c0-3.4-1.4-5.2-4-5.2c-3.2,0-5.4,2.4-5.4,6.8v7c0,1.9-0.4,3-2.4,3
		c-1.5,0-2.3-0.8-2.3-2.1V312.6z"/>
</g>
<g id="o0XoZ8_1_">
	<g>
		<path class="st3" d="M54.1,35.8c0,2.7,0,5.3,0,7.9c0,0.9,0,1.7,0,2.6c0,1.5-0.9,2.4-2.3,2.3c-1.3,0-2.1-0.8-2.1-2.4
			c0-4.9,0-9.8,0-14.7c0-2.2-0.1-4.5,0.1-6.7c0.5-5.6,5.5-10.2,11-10.5c7.2-0.4,12,5.1,12.7,9.8c0.8,5.2-0.9,9.5-5.3,12.3
			c-4.4,2.8-8.9,2.6-13.3-0.2C54.6,36.2,54.4,36.1,54.1,35.8z M54.1,26.4c0,4.1,3.4,7.5,7.5,7.5c4.2,0,7.6-3.4,7.6-7.6
			c0-4.1-3.4-7.5-7.5-7.5C57.5,18.8,54.1,22.2,54.1,26.4z"/>
		<path class="st3" d="M102.7,28.6c0.6,3.3,4.5,5.9,8,5.2c1.3-0.2,2.5-0.8,3.6-1.5c1.4-0.8,2.6-0.9,3.4,0.1c0.8,1,0.5,2.5-0.8,3.5
			c-3.8,2.8-8,3.3-12.3,1.3c-4.4-2-6.8-5.6-7-10.4c-0.3-6.1,4.1-11.4,10.1-12.4c6-0.9,11.8,2.8,13.4,8.7c0.2,0.9,0.4,1.8,0.4,2.7
			c0.1,2-0.7,2.8-2.6,2.8c-5,0-10,0-15.1,0C103.6,28.6,103.2,28.6,102.7,28.6z M102.7,24.1c4.7,0,9.5,0,14.2,0
			c-0.6-3-3.9-5.4-7.2-5.3C106.4,18.9,103.2,21.3,102.7,24.1z"/>
		<path class="st3" d="M4.9,28.6c1.1,4.6,7.1,6.8,11.2,4.2c0.3-0.2,0.5-0.4,0.8-0.6c1.2-0.8,2.5-0.7,3.2,0.4c0.7,1,0.5,2.3-0.5,3.2
			c-3.5,3-9.3,3.5-13.5,1.1C1.3,34-1,28.6,0.4,23.2c1.3-5,6.1-8.7,11.2-8.8c5.7-0.1,10.4,3.3,11.9,8.6c0.3,1,0.4,2,0.4,3
			c0.1,1.8-0.7,2.6-2.5,2.6c-5,0-10,0-14.9,0C6,28.6,5.5,28.6,4.9,28.6z M19.1,24.2c-0.6-3.1-4.1-5.6-7.5-5.4
			c-3.3,0.2-6.5,2.8-6.6,5.4C9.7,24.2,14.3,24.2,19.1,24.2z"/>
		<path class="st3" d="M157.8,38.4c-3.4,0-6.3-1.3-8.7-3.8c-1.1-1.1-1.2-2.5-0.3-3.4c0.9-0.9,2.2-0.8,3.3,0.3c2.2,2.1,4.7,3,7.6,2.3
			c0.9-0.2,1.8-0.7,2.6-1.3c1.3-0.9,1-1.9-0.4-2.4c-3-1-6.1-2-9.1-3c-1.9-0.6-3.6-1.6-4.4-3.7c-0.8-2.2-0.1-4.6,1.9-6.4
			c4.6-4,12.9-3.3,16.7,1.6c0.8,1,0.7,2.2-0.1,3c-0.8,0.8-2.1,0.9-3.1-0.1c-2.1-2.2-4.7-3.2-7.7-2.5c-1,0.2-2,0.8-2.8,1.4
			c-1.1,0.8-0.9,1.8,0.4,2.2c3.1,1,6.3,2,9.4,3.1c3.2,1.1,4.7,3.1,4.5,5.9c-0.1,1.9-1.1,3.3-2.6,4.4
			C162.9,37.7,160.5,38.4,157.8,38.4z"/>
		<path class="st3" d="M134.8,38.4c-3.2,0.1-6.1-1.3-8.4-3.7c-1.1-1.1-1.2-2.5-0.4-3.4c0.9-0.9,2.2-0.9,3.4,0.3
			c2.1,2.1,4.6,3,7.5,2.2c1-0.3,2.1-0.9,2.9-1.5c1-0.8,0.8-1.7-0.5-2.1c-2.9-1-5.9-1.9-8.8-2.9c-0.8-0.3-1.5-0.5-2.3-0.9
			c-3.1-1.6-4-5.4-1.8-8.2c1.8-2.3,4.4-3.3,7.2-3.6c4-0.5,7.4,0.9,10.2,3.8c1,1.1,1.1,2.4,0.2,3.3c-0.9,0.9-2.2,0.9-3.3-0.2
			c-2.1-2.1-4.6-3.1-7.5-2.4c-1.1,0.3-2.1,0.9-3,1.5c-1,0.8-0.7,1.7,0.5,2.1c3.1,1.1,6.3,2,9.4,3.1c3.4,1.2,4.9,3.3,4.6,6.4
			c-0.2,1.7-1.2,2.9-2.5,3.9C140.2,37.7,137.7,38.4,134.8,38.4z"/>
		<path class="st3" d="M35.9,22.8c2.1-2.5,4.1-4.9,6.1-7.2c1.1-1.3,2.4-1.6,3.4-0.7c1.1,0.9,1.1,2.3-0.1,3.6
			c-2.2,2.6-4.3,5.2-6.6,7.9c1.3,1.6,2.6,3.2,4,4.8c0.9,1.1,1.9,2.2,2.8,3.4c1,1.2,0.9,2.6-0.1,3.4c-1,0.8-2.3,0.6-3.3-0.5
			c-1.8-2.1-3.5-4.2-5.3-6.3c-0.3-0.4-0.6-0.7-1-1.2c-1.3,1.6-2.5,3-3.8,4.5c-0.9,1-1.7,2-2.6,3.1c-0.9,1.1-2.2,1.3-3.2,0.5
			c-1-0.8-1.1-2.2-0.2-3.3c2.1-2.6,4.3-5.1,6.4-7.7c0.1-0.2,0.2-0.3,0.4-0.6c-2.2-2.6-4.4-5.2-6.5-7.8c-0.3-0.4-0.7-0.8-0.8-1.3
			c-0.3-1,0-2,1-2.5c0.9-0.6,2.1-0.4,2.9,0.6c1.8,2.2,3.6,4.3,5.5,6.5C35.2,22.1,35.5,22.4,35.9,22.8z"/>
		<path class="st3" d="M81.7,16.8c0.3-0.2,0.6-0.4,0.9-0.6c3.1-2,6.4-2.3,9.9-1.5c0.3,0.1,0.7,0.2,1,0.3c1.5,0.7,2,1.7,1.6,2.9
			c-0.5,1.3-1.6,1.7-3.2,1.2c-5.6-1.7-10.3,1.8-10.4,7.6c0,2.9,0,5.8,0,8.7c0,1.8-0.8,2.7-2.2,2.7c-1.4,0-2.2-0.9-2.2-2.7
			c0-6.1,0-12.2,0-18.3c0-1.9,0.6-2.8,1.9-3C80.4,14.2,81.2,14.9,81.7,16.8z"/>
	</g>
</g>
</svg>
